<svg width="173" height="27" viewBox="0 0 173 27" fill="none" xmlns="http://www.w3.org/2000/svg">
<path d="M0.52 26.5V1.825H11.895C14.6017 1.825 16.69 2.39667 18.16 3.54C19.63 4.68333 20.365 6.24667 20.365 8.23C20.365 9.7 19.9217 10.9483 19.035 11.975C18.1717 13.0017 16.9817 13.69 15.465 14.04V13.48C17.2383 13.7833 18.6033 14.46 19.56 15.51C20.54 16.5367 21.03 17.8783 21.03 19.535C21.03 21.7283 20.2483 23.4433 18.685 24.68C17.145 25.8933 15.01 26.5 12.28 26.5H0.52ZM5.735 22.44H11.615C12.9683 22.44 14.0067 22.1833 14.73 21.67C15.4533 21.1567 15.815 20.34 15.815 19.22C15.815 18.0767 15.4533 17.26 14.73 16.77C14.0067 16.2567 12.9683 16 11.615 16H5.735V22.44ZM5.735 11.975H10.915C12.3383 11.975 13.3883 11.7183 14.065 11.205C14.7417 10.6917 15.08 9.92167 15.08 8.895C15.08 7.89167 14.7417 7.13333 14.065 6.62C13.3883 6.10667 12.3383 5.85 10.915 5.85H5.735V11.975ZM24.5401 26.5V0.739998H29.8251V26.5H24.5401ZM40.5846 26.885C38.3679 26.885 36.7229 26.2783 35.6496 25.065C34.5763 23.8283 34.0396 21.9617 34.0396 19.465V8.755H39.3246V19.465C39.3246 20.585 39.5463 21.4133 39.9896 21.95C40.4563 22.4867 41.1679 22.755 42.1246 22.755C43.1746 22.755 44.0379 22.3933 44.7146 21.67C45.4146 20.9233 45.7646 19.9317 45.7646 18.695V8.755H51.0496V26.5H45.9046V23.105H46.3946C45.8579 24.295 45.0879 25.2283 44.0846 25.905C43.1046 26.5583 41.9379 26.885 40.5846 26.885ZM64.3294 26.885C61.2494 26.885 58.846 26.0567 57.1194 24.4C55.3927 22.7433 54.5294 20.4917 54.5294 17.645C54.5294 15.8017 54.891 14.1917 55.6144 12.815C56.361 11.4383 57.3877 10.365 58.6944 9.595C60.0244 8.80167 61.576 8.405 63.3494 8.405C65.0994 8.405 66.5577 8.77833 67.7244 9.525C68.9144 10.2717 69.801 11.3217 70.3844 12.675C70.991 14.005 71.2944 15.5567 71.2944 17.33V18.555H58.8694V15.93H67.4444L66.8494 16.42C66.8494 14.95 66.546 13.8417 65.9394 13.095C65.356 12.325 64.5044 11.94 63.3844 11.94C62.1477 11.94 61.191 12.395 60.5144 13.305C59.861 14.215 59.5344 15.5217 59.5344 17.225V17.785C59.5344 19.5117 59.9544 20.795 60.7944 21.635C61.6577 22.475 62.8944 22.895 64.5044 22.895C65.461 22.895 66.3594 22.7783 67.1994 22.545C68.0627 22.2883 68.8794 21.8917 69.6494 21.355L71.1194 24.855C70.2327 25.5083 69.206 26.01 68.0394 26.36C66.896 26.71 65.6594 26.885 64.3294 26.885ZM86.9325 26.885C84.2959 26.885 82.0325 26.36 80.1425 25.31C78.2525 24.26 76.7942 22.79 75.7675 20.9C74.7642 18.9867 74.2625 16.735 74.2625 14.145C74.2625 11.555 74.7642 9.315 75.7675 7.425C76.7942 5.535 78.2525 4.065 80.1425 3.015C82.0325 1.965 84.2959 1.44 86.9325 1.44C88.6359 1.44 90.1875 1.685 91.5875 2.175C92.9875 2.64167 94.1775 3.33 95.1575 4.24L93.4425 8.545C92.3692 7.705 91.3425 7.11 90.3625 6.76C89.4059 6.41 88.3209 6.235 87.1075 6.235C84.7975 6.235 83.0242 6.92333 81.7875 8.3C80.5742 9.65333 79.9675 11.6017 79.9675 14.145C79.9675 16.6883 80.5742 18.6483 81.7875 20.025C83.0242 21.4017 84.7975 22.09 87.1075 22.09C88.3209 22.09 89.4059 21.915 90.3625 21.565C91.3425 21.215 92.3692 20.62 93.4425 19.78L95.1575 24.085C94.1775 24.9717 92.9875 25.66 91.5875 26.15C90.1875 26.64 88.6359 26.885 86.9325 26.885ZM105.777 26.885C103.887 26.885 102.242 26.5117 100.842 25.765C99.4654 24.995 98.392 23.9217 97.622 22.545C96.8754 21.1683 96.502 19.5233 96.502 17.61C96.502 15.72 96.8754 14.0867 97.622 12.71C98.392 11.3333 99.4654 10.2717 100.842 9.525C102.242 8.77833 103.887 8.405 105.777 8.405C107.667 8.405 109.312 8.77833 110.712 9.525C112.112 10.2717 113.185 11.3333 113.932 12.71C114.702 14.0867 115.087 15.72 115.087 17.61C115.087 19.5233 114.702 21.1683 113.932 22.545C113.185 23.9217 112.112 24.995 110.712 25.765C109.312 26.5117 107.667 26.885 105.777 26.885ZM105.777 22.895C106.99 22.895 107.947 22.4633 108.647 21.6C109.37 20.7367 109.732 19.4067 109.732 17.61C109.732 15.8133 109.37 14.495 108.647 13.655C107.947 12.815 106.99 12.395 105.777 12.395C104.564 12.395 103.595 12.815 102.872 13.655C102.172 14.495 101.822 15.8133 101.822 17.61C101.822 19.4067 102.172 20.7367 102.872 21.6C103.595 22.4633 104.564 22.895 105.777 22.895ZM144.604 26.885C143.064 26.885 141.711 26.5117 140.544 25.765C139.377 25.0183 138.467 23.9567 137.814 22.58C137.161 21.2033 136.834 19.5467 136.834 17.61C136.834 15.6967 137.161 14.0517 137.814 12.675C138.467 11.2983 139.377 10.2483 140.544 9.525C141.711 8.77833 143.064 8.405 144.604 8.405C146.027 8.405 147.299 8.755 148.419 9.455C149.562 10.1317 150.309 11.0533 150.659 12.22H150.274L150.694 8.755H155.769C155.699 9.525 155.629 10.3067 155.559 11.1C155.512 11.87 155.489 12.6283 155.489 13.375V26.5H150.239L150.204 23.175H150.624C150.251 24.295 149.504 25.1933 148.384 25.87C147.264 26.5467 146.004 26.885 144.604 26.885ZM146.214 22.895C147.427 22.895 148.407 22.4633 149.154 21.6C149.901 20.7367 150.274 19.4067 150.274 17.61C150.274 15.8133 149.901 14.495 149.154 13.655C148.407 12.815 147.427 12.395 146.214 12.395C145.001 12.395 144.021 12.815 143.274 13.655C142.527 14.495 142.154 15.8133 142.154 17.61C142.154 19.4067 142.516 20.7367 143.239 21.6C143.986 22.4633 144.977 22.895 146.214 22.895ZM159.788 26.5V13.445C159.788 12.675 159.765 11.8933 159.718 11.1C159.695 10.3067 159.637 9.525 159.543 8.755H164.618L165.213 13.935H164.408C164.642 12.675 165.015 11.6367 165.528 10.82C166.065 10.0033 166.718 9.39667 167.488 9C168.282 8.60333 169.18 8.405 170.183 8.405C170.627 8.405 170.977 8.42833 171.233 8.475C171.49 8.49833 171.747 8.55667 172.003 8.65L171.968 13.305C171.478 13.095 171.058 12.9667 170.708 12.92C170.382 12.85 169.962 12.815 169.448 12.815C168.468 12.815 167.652 13.0017 166.998 13.375C166.368 13.7483 165.89 14.2967 165.563 15.02C165.26 15.7433 165.108 16.6183 165.108 17.645V26.5H159.788Z" fill="#1C2752"/>
<path d="M118.5 26.5V0.739998H123.785V26.5H118.5ZM128.105 26.5V0.739998H133.39V26.5H128.105Z" fill="#FFB342"/>
</svg>
